#!OML:ASF F:\twosubjects\two\wednesday\Session 1\rory1.ASF
:FULLY-SPECIFIED
:DEGREES
402
root 8.8219 14.3943 12.9406 -169.577 -9.77589 189.188
lowerback 29.2916 -0.433513 0.360233
upperback 5.26036 -1.39984 7.40922
thorax -9.5429 -1.3441 8.33356
lowerneck -17.6027 -1.46549 -0.317874
upperneck -10.6869 -0.0950661 -2.12109
head -0.508246 0.772218 -0.622969
rclavicle 1.19768e-014 -5.08889e-014
rhumerus -4.73146 -5.81921 -43.4823
rradius 104.576
rwrist -17.1092
rhand -23.5892 49.4053
rfingers 7.12502
rthumb 2.87407 19.4449
lclavicle 1.19768e-014 -5.08889e-014
lhumerus 19.6381 -2.39296 43.3009
lradius 100.583
lwrist 22.5877
lhand -30.8821 10.2291
lfingers 7.12502
lthumb -4.16932 40.1681
rfemur -63.3604 -3.67246 24.7547
rtibia 89.503
rfoot -29.054 -16.5802
rtoes 0.0497407
lfemur -70.6439 4.62803 -5.42618
ltibia 90.6885
lfoot -25.81 -11.0159
ltoes -14.4232
403
root 8.89237 14.3518 12.9566 -169.54 -11.8385 188.893
lowerback 29.619 -0.604908 -0.33103
upperback 5.3906 -1.83456 7.83564
thorax -9.48119 -1.55029 9.35063
lowerneck -18.3145 -1.69775 -0.643388
upperneck -10.7241 -0.228882 -1.67966
head -0.413537 0.758971 -0.437508
rclavicle -1.27222e-014 -6.69904e-014
rhumerus -7.07294 -7.06748 -43.4035
rradius 104.932
rwrist -17.2213
rhand -23.7463 48.6553
rfingers 7.12502
rthumb 2.72236 18.6929
lclavicle -1.27222e-014 -6.69904e-014
lhumerus 22.9763 -2.13016 42.5819
lradius 99.4565
lwrist 22.6863
lhand -30.5688 10.4808
lfingers 7.12502
lthumb -3.8667 40.4255
rfemur -63.7797 -5.12493 24.8751
rtibia 90.106
rfoot -28.8109 -17.8464
rtoes -2.49957
lfemur -71.7855 3.30481 -5.38726
ltibia 91.0992
lfoot -25.4999 -11.7287
ltoes -14.0564
404
root 8.96549 14.3105 12.9767 -169.357 -13.8335 188.454
lowerback 30.1423 -0.843039 -1.09101
upperback 5.36322 -2.33836 8.13206
thorax -9.64798 -1.76003 10.3136
lowerneck -18.9276 -1.96979 -0.736319
upperneck -10.7446 -0.475516 -1.21454
head -0.327804 0.675082 -0.289056
rclavicle 3.34455e-014 6.75868e-015
rhumerus -9.32244 -8.23669 -43.5836
rradius 105.322
rwrist -17.9786
rhand -23.049 48.3564
rfingers 7.12502
rthumb 3.39574 18.4037
lclavicle 3.34455e-014 6.75868e-015
lhumerus 25.8889 -1.87205 41.753
lradius 98.4121
lwrist 23.1372
lhand -30.5261 10.2081
lfingers 7.12502
lthumb -3.82551 40.1536
rfemur -64.388 -6.50145 24.8495
rtibia 90.8412
rfoot -28.4737 -18.9767
rtoes -4.67378
lfemur -73.0255 2.00091 -5.46697
ltibia 91.4868
lfoot -25.1253 -12.4014
ltoes -13.6403
405
root 9.02926 14.2353 12.9998 -169.045 -15.7113 188.274
lowerback 30.4616 -1.11705 -1.47151
upperback 5.2921 -2.76935 8.4826
thorax -9.77847 -1.94327 11.0989
lowerneck -19.4217 -2.32251 -0.85148
upperneck -10.9579 -0.805051 -0.655241
head -0.321248 0.564677 -0.11274
rclavicle 3.83654e-014 -1.85864e-014
rhumerus -11.568 -9.35355 -43.7603
rradius 105.784
rwrist -18.3313
rhand -22.6478 48.3872
rfingers 7.12502
rthumb 3.78322 18.441
lclavicle 3.83654e-014 -1.85864e-014
lhumerus 28.8013 -1.57943 41.2949
lradius 97.193
lwrist 23.1021
lhand -30.6704 10.5846
lfingers 7.12502
lthumb -3.96482 40.5274
rfemur -65.3687 -7.63129 25.0296
rtibia 91.8216
rfoot -28.6555 -19.649
rtoes -4.92363
lfemur -74.4634 1.6598 -5.78528
ltibia 91.8456
lfoot -24.7015 -13.2815
ltoes -15.0497
406
root 9.07669 14.1276 13.0288 -168.432 -17.1774 187.731
lowerback 30.463 -1.24705 -2.05601
upperback 5.29687 -3.08922 8.73039
thorax -9.69588 -2.07465 11.8237
lowerneck -20.1779 -2.73088 -1.3443
upperneck -11.0782 -1.09756 0.0535603
head -0.236932 0.499309 0.175273
rclavicle 7.63333e-014 -6.50026e-014
rhumerus -13.6307 -10.4884 -43.8101
rradius 106.231
rwrist -18.6212
rhand -22.0514 47.488
rfingers 7.12502
rthumb 4.35911 17.5529
lclavicle 7.63333e-014 -6.50026e-014
lhumerus 32.1116 -1.29155 41.353
lradius 95.5708
lwrist 22.347
lhand -30.8128 10.8199
lfingers 7.12502
lthumb -4.10235 40.7601
rfemur -66.8288 -8.64425 24.743
rtibia 93.0404
rfoot -29.0877 -20.0165
rtoes -4.88134
lfemur -76.0898 0.753301 -6.26254
ltibia 92.3172
lfoot -24.5271 -13.3413
ltoes -16.1204
407
root 9.11747 14.0249 13.0666 -167.597 -18.1263 187.056
lowerback 30.2791 -1.30852 -2.59351
upperback 5.31397 -3.30458 8.75074
thorax -9.53703 -2.15361 12.2129
lowerneck -20.8229 -3.16011 -1.91439
upperneck -11.3061 -1.38429 0.754408
head -0.199025 0.449346 0.475384
rclavicle -7.38485e-014 1.22551e-013
rhumerus -15.5662 -11.6101 -44.0727
rradius 106.714
rwrist -19.2051
rhand -21.7071 46.9122
rfingers 7.12502
rthumb 4.69158 16.9842
lclavicle -7.38485e-014 1.22551e-013
lhumerus 35.795 -1.34255 41.5614
lradius 93.523
lwrist 21.698
lhand -30.9331 9.80686
lfingers 7.12502
lthumb -4.21858 39.7448
rfemur -68.5353 -9.22769 24.2588
rtibia 94.2928
rfoot -29.3386 -20.1096
rtoes -4.15561
lfemur -77.9144 0.00350832 -6.75362
ltibia 92.8507
lfoot -23.989 -13.5736
ltoes -14.4339
